<svg xmlns="http://www.w3.org/2000/svg" width="160" height="160" viewBox="0 0 160 160">
  <rect width="160" height="160" fill="#EFEFEF" fill-rule="evenodd"/>
  <text fill="#B0B4B8" fill-rule="evenodd" font-family="MicrosoftYaHeiUI, Microsoft YaHei UI" font-size="18">
    <tspan x="26" y="106">内容涉嫌违规</tspan> <tspan x="44" y="134">禁止访问</tspan>
  </text>
  <rect width="72" height="72" fill="none" transform="translate(44 16)"/>
  <path fill="#B8B8B8" d="M69.6362973,48.3347118 C72.7651496,52.8857697 71.6122241,59.1115669 67.0611663,62.2404192 C65.3941826,63.3864705 63.4188136,64 61.395878,64 L10.604122,64 C5.08127446,64 0.60412196,59.5228475 0.60412196,54 C0.60412196,51.9770644 1.21765142,50.0016955 2.36370272,48.3347118 L27.7595808,11.3952528 C30.8884331,6.84419492 37.1142303,5.6912695 41.6652882,8.82012179 C42.6740483,9.51364437 43.5468967,10.3864927 44.2404192,11.3952528 L69.6362973,48.3347118 Z M39.2961677,14.7944257 C39.0187587,14.3909217 38.6696193,14.0417824 38.2661153,13.7643733 C36.4456921,12.5128324 33.9553732,12.9740026 32.7038323,14.7944257 L7.30795426,51.7338847 C6.84953374,52.4006782 6.60412196,53.1908258 6.60412196,54 C6.60412196,56.209139 8.39498296,58 10.604122,58 L61.395878,58 C62.2050523,58 62.9951998,57.7545882 63.6619933,57.2961677 C65.4824165,56.0446268 65.9435867,53.5543079 64.6920457,51.7338847 L39.2961677,14.7944257 Z" transform="translate(44 16)"/>
  <path fill="#B8B8B8" fill-rule="evenodd" d="M36,48 C37.6568542,48 39,49.3431458 39,51 C39,52.6568542 37.6568542,54 36,54 C34.3431458,54 33,52.6568542 33,51 C33,49.3431458 34.3431458,48 36,48 Z M36,25 C37.6568542,25 39,26.3431458 39,28 L39,42 C39,43.6568542 37.6568542,45 36,45 C34.3431458,45 33,43.6568542 33,42 L33,28 C33,26.3431458 34.3431458,25 36,25 Z" transform="translate(44 16)"/>
</svg>
